<svg width="15" height="15" viewBox="0 0 15 15" fill="none" xmlns="http://www.w3.org/2000/svg">
<path d="M3.83547 9.00627C4.3274 10.7864 5.66238 11.6765 7.84041 11.6767C9.24211 11.6767 10.3026 11.2032 11.022 10.2562L13.9763 11.9605C12.575 13.987 10.5109 15.0001 7.78395 14.9999C5.43563 14.9999 3.55147 14.2898 2.13146 12.8696C0.767527 11.4193 0.00563666 9.50487 3.11512e-05 7.51396C-0.00557436 5.52305 0.745522 3.60439 2.10126 2.1464C3.50236 0.717327 5.30138 0.00278688 7.49833 0.00278688C8.46174 -0.0248563 9.41996 0.153414 10.309 0.525679C11.198 0.897943 11.9973 1.45563 12.6536 2.16149C14.009 3.6037 14.7392 5.52337 14.6849 7.50181C14.6817 8.0068 14.6341 8.51052 14.5427 9.00717L3.83547 9.00627ZM3.77872 6.16553H11.022C10.8799 5.30831 10.4181 4.53682 9.72981 4.00652C9.08254 3.53551 8.30028 3.28651 7.49984 3.29671C6.62356 3.2624 5.76178 3.52791 5.05673 4.04939C4.39402 4.58156 3.94124 5.33128 3.77872 6.16553Z" fill="#271C47"/>
</svg>
