<svg width="14" height="15" viewBox="0 0 14 15" fill="none" xmlns="http://www.w3.org/2000/svg">
<path d="M8.1118 0.00238318C8.8462 -0.0196779 9.57714 0.111626 10.258 0.387923C10.9388 0.66422 11.5545 1.07944 12.0658 1.60707C13.106 2.67727 13.6262 4.15561 13.6265 6.04211V15H9.86255V6.5098C9.86255 5.53802 9.59986 4.79368 9.07448 4.27677C8.79397 4.01378 8.46349 3.80982 8.10264 3.677C7.7418 3.54418 7.35795 3.48522 6.97388 3.50359C6.54324 3.4837 6.11319 3.55389 5.71122 3.70967C5.30925 3.86545 4.94421 4.10338 4.63943 4.40827C4.05595 5.0114 3.76421 5.91598 3.76421 7.12203V14.9997H0V0.410222H3.76421V2.04406C4.67809 0.68253 6.12729 0.00166239 8.1118 0.00145563" fill="#271C47"/>
</svg>
