<svg width="15" height="15" viewBox="0 0 15 15" fill="none" xmlns="http://www.w3.org/2000/svg">
<path d="M12.7803 12.8262C11.7288 13.8686 10.3923 14.5765 8.93925 14.8606C7.48617 15.1447 5.98151 14.9924 4.61486 14.4228C3.2482 13.8533 2.0807 12.892 1.25946 11.66C0.438224 10.4281 0 8.98059 0 7.5C0 6.01941 0.438224 4.57194 1.25946 3.33998C2.0807 2.10802 3.2482 1.1467 4.61486 0.577138C5.98151 0.00757788 7.48617 -0.144729 8.93925 0.139398C10.3923 0.423524 11.7288 1.13138 12.7803 2.17376C14.1817 3.59228 14.9676 5.50596 14.9676 7.5C14.9676 9.49403 14.1817 11.4077 12.7803 12.8262ZM4.69844 10.312C5.05439 10.6756 5.48162 10.9616 5.95334 11.1523C6.42506 11.3429 6.93109 11.434 7.43968 11.4198C7.95031 11.4331 8.45824 11.3416 8.93218 11.1511C9.40612 10.9606 9.83603 10.675 10.1954 10.312C10.9074 9.54867 11.3033 8.54368 11.3033 7.49984C11.3033 6.456 10.9074 5.45102 10.1954 4.68765C9.83603 4.32465 9.40612 4.0391 8.93218 3.84858C8.45824 3.65806 7.95031 3.56661 7.43968 3.57986C6.93109 3.5657 6.42506 3.6568 5.95334 3.84743C5.48162 4.03806 5.05439 4.32411 4.69844 4.68765C3.99499 5.45527 3.60478 6.45865 3.60478 7.49984C3.60478 8.54103 3.99499 9.54442 4.69844 10.312Z" fill="#271C47"/>
</svg>
