<svg width="10" height="13" viewBox="0 0 10 13" fill="none" xmlns="http://www.w3.org/2000/svg">
<path d="M3.72178 3.79861C3.72178 4.1232 3.93664 4.38667 4.36638 4.58904C4.87078 4.81788 5.39625 4.99713 5.93535 5.12427C6.56268 5.28216 7.1801 5.47711 7.78435 5.7081C8.40666 5.94808 8.94985 6.35663 9.35305 6.88794C9.79726 7.48391 10.0248 8.21364 9.99792 8.95645C9.99792 10.2055 9.53172 11.1664 8.59933 11.8392C7.66695 12.512 6.50341 12.8481 5.10871 12.8476C2.61098 12.8476 0.908078 11.8827 0 9.95296L2.72475 8.42045C3.08122 9.4747 3.87597 10.0017 5.10898 10.0016C6.22787 10.0016 6.78732 9.65285 6.78732 8.95542C6.78732 8.63135 6.57253 8.36787 6.14297 8.16499C5.63744 7.93565 5.11223 7.75245 4.57375 7.6176C3.94601 7.45176 3.32868 7.24878 2.72501 7.00972C2.11028 6.76756 1.56939 6.36918 1.15578 5.85394C0.713446 5.28995 0.485091 4.58756 0.511187 3.87127C0.4889 3.32722 0.59772 2.78579 0.828475 2.2926C1.05923 1.79941 1.40515 1.36892 1.8371 1.0374C2.78575 0.326877 3.94876 -0.0380467 5.13328 0.00314084C6.0758 -0.00832975 7.00553 0.221968 7.83373 0.672048C8.64115 1.11521 9.30721 1.77715 9.75538 2.58181L7.07898 4.04114C6.92237 3.65863 6.65118 3.33397 6.30267 3.11175C5.95415 2.88953 5.54539 2.78064 5.13251 2.80004C4.77722 2.78677 4.42607 2.87996 4.12411 3.06765C3.99917 3.14348 3.89635 3.25078 3.82592 3.37884C3.7555 3.50689 3.71994 3.6512 3.72281 3.79732" fill="#271C47"/>
</svg>
