<svg width="13" height="13" viewBox="0 0 13 13" fill="none" xmlns="http://www.w3.org/2000/svg">
<path d="M3.3241 7.80549C3.75044 9.34825 4.90743 10.1197 6.79507 10.1199C8.00988 10.1199 8.92902 9.70952 9.55248 8.88877L12.1129 10.3659C10.8984 12.1222 9.10948 13.0002 6.74613 13C4.71092 13 3.07796 12.3846 1.84727 11.1537C0.665194 9.89677 0.00488514 8.23761 2.69979e-05 6.51214C-0.00483115 4.78667 0.646123 3.12382 1.82111 1.86023C3.0354 0.621687 4.59456 0.00241531 6.4986 0.00241531C7.33356 -0.0215423 8.16402 0.132959 8.9345 0.455591C9.70498 0.778223 10.3977 1.26155 10.9665 1.87331C12.1412 3.12322 12.7741 4.78695 12.727 6.50162C12.7242 6.93927 12.683 7.37584 12.6037 7.80627L3.3241 7.80549ZM3.27491 5.3435H9.55248C9.4293 4.60057 9.02911 3.93194 8.43256 3.47234C7.87159 3.06413 7.19362 2.84833 6.49991 2.85717C5.74046 2.82744 4.99358 3.05754 4.38253 3.5095C3.80818 3.97071 3.41576 4.62047 3.27491 5.3435Z" fill="#271C47"/>
</svg>
