<svg width="35" height="35" viewBox="0 0 35 35" fill="none" xmlns="http://www.w3.org/2000/svg">
<path fill-rule="evenodd" clip-rule="evenodd" d="M35 17.5C35 20.9612 33.9736 24.3446 32.0507 27.2225C30.1278 30.1003 27.3947 32.3433 24.197 33.6679C20.9993 34.9924 17.4806 35.339 14.0859 34.6637C10.6913 33.9885 7.57306 32.3218 5.12564 29.8744C2.67822 27.4269 1.01151 24.3087 0.336265 20.9141C-0.338976 17.5194 0.0075826 14.0007 1.33212 10.803C2.65665 7.60532 4.89967 4.8722 7.77753 2.94927C10.6554 1.02635 14.0388 0 17.5 0C19.7981 0 22.0738 0.452648 24.197 1.33211C26.3202 2.21156 28.2493 3.5006 29.8744 5.12563C31.4994 6.75065 32.7884 8.67983 33.6679 10.803C34.5473 12.9262 35 15.2019 35 17.5ZM8.93522 19.5676C9.35152 21.0729 10.4804 21.8255 12.322 21.8257C13.5069 21.8257 14.4037 21.4253 15.0123 20.6245L17.5103 22.0657C16.3251 23.7792 14.5797 24.6359 12.2742 24.6358C10.2885 24.6358 8.69533 24.0353 7.49459 22.8344C6.34148 21.6078 5.69752 19.9889 5.69306 18.3055C5.68861 16.622 6.324 14.9997 7.47059 13.7671C8.65533 12.5587 10.1765 11.9545 12.034 11.9545C12.8487 11.9311 13.659 12.0818 14.4107 12.3966C15.1625 12.7114 15.8385 13.183 16.3934 13.7798C17.5394 14.9994 18.1567 16.6226 18.1108 18.2955C18.1082 18.7225 18.068 19.1485 17.9906 19.5684L8.93522 19.5676ZM8.88646 17.1656H15.0123C14.8919 16.4407 14.5014 15.7884 13.9194 15.3399C13.3721 14.9416 12.7106 14.7311 12.0337 14.7397C11.2928 14.7107 10.5641 14.9352 9.96789 15.3762C9.40723 15.8261 9.02409 16.46 8.88646 17.1656ZM23.4492 24.173C24.2266 24.4875 25.0587 24.6447 25.8973 24.6355L25.8984 24.6352C27.021 24.6475 28.1256 24.3527 29.0929 23.7828C30.0279 23.2407 30.7996 22.4566 31.3267 21.513L28.6367 19.9756C28.4012 20.4672 28.0195 20.8741 27.544 21.1405C27.0346 21.4261 26.4585 21.5711 25.8746 21.5607C25.4473 21.5738 25.0219 21.4984 24.6251 21.3393C24.2284 21.1803 23.8687 20.9409 23.5688 20.6363C22.9816 19.993 22.656 19.1535 22.656 18.2825C22.656 17.4115 22.9816 16.5719 23.5688 15.9287C23.8687 15.6241 24.2284 15.3847 24.6252 15.2256C25.0219 15.0665 25.4473 14.991 25.8746 15.004C26.4521 14.9958 27.0209 15.1452 27.5197 15.4362C27.9942 15.7095 28.3751 16.1197 28.6127 16.6131L31.2777 15.052C30.78 14.1058 30.0214 13.3222 29.0918 12.7941C28.1221 12.2313 27.0185 11.9408 25.8973 11.9532C25.0587 11.944 24.2266 12.1012 23.4492 12.4157C22.6718 12.7303 21.9645 13.1959 21.3682 13.7856C20.7719 14.3754 20.2986 15.0775 19.9755 15.8515C19.6524 16.6254 19.4861 17.4557 19.4861 18.2944C19.4861 19.133 19.6524 19.9633 19.9755 20.7372C20.2986 21.5112 20.7719 22.2133 21.3682 22.8031C21.9645 23.3928 22.6718 23.8584 23.4492 24.173Z" fill="#F7CA11"/>
</svg>
