<svg width="17" height="18" viewBox="0 0 17 18" fill="none" xmlns="http://www.w3.org/2000/svg">
<path d="M9.2049 17.9364C8.00089 17.9494 6.80621 17.7271 5.69002 17.2823C4.57383 16.8374 3.5583 16.1789 2.70222 15.3449C1.84614 14.5109 1.16651 13.5178 0.702667 12.4233C0.23883 11.3288 0 10.1545 0 8.96848C0 7.78243 0.23883 6.60815 0.702667 5.51364C1.16651 4.41912 1.84614 3.4261 2.70222 2.59206C3.5583 1.75802 4.57383 1.09951 5.69002 0.65468C6.80621 0.209845 8.00089 -0.0124925 9.2049 0.000541614C10.8146 -0.01704 12.3992 0.393858 13.7914 1.18984C15.126 1.93665 16.2152 3.04484 16.9297 4.38296L13.1034 6.59078C12.7624 5.893 12.2155 5.31289 11.5343 4.92635C10.818 4.51485 10.0014 4.30353 9.17228 4.31509C8.55878 4.29677 7.94806 4.40346 7.37838 4.62849C6.8087 4.85352 6.29235 5.19203 5.86169 5.62281C5.01862 6.53258 4.55121 7.71989 4.55121 8.95169C4.55121 10.1835 5.01862 11.3708 5.86169 12.2806C6.29232 12.7114 6.80867 13.0499 7.37836 13.2748C7.94805 13.4998 8.55879 13.6064 9.17228 13.5879C10.0106 13.6027 10.8378 13.3975 11.5691 12.9936C12.2519 12.6168 12.7998 12.0414 13.1379 11.3462L17.0001 13.5204C16.2433 14.8549 15.1354 15.9638 13.7929 16.7305C12.4041 17.5365 10.8182 17.9534 9.20637 17.9361" fill="white"/>
</svg>
