<svg width="49" height="48" viewBox="0 0 49 48" fill="none" xmlns="http://www.w3.org/2000/svg">
<path d="M48.7298 24C48.7298 28.7467 47.3009 33.3869 44.6236 37.3337C41.9464 41.2805 38.1411 44.3566 33.689 46.1731C29.2369 47.9896 24.3379 48.4649 19.6116 47.5388C14.8852 46.6128 10.5438 44.327 7.13633 40.9706C3.72883 37.6141 1.4083 33.3377 0.468176 28.6822C-0.47195 24.0266 0.0105571 19.201 1.85468 14.8156C3.6988 10.4302 6.82171 6.68187 10.8285 4.04472C14.8353 1.40757 19.546 0 24.3649 0C27.5646 0 30.7329 0.620775 33.689 1.82689C36.6451 3.033 39.331 4.80083 41.5935 7.02943C43.856 9.25804 45.6507 11.9038 46.8752 14.8156C48.0996 17.7274 48.7298 20.8483 48.7298 24Z" fill="#E7CD1F"/>
</svg>
