<svg width="13" height="13" viewBox="0 0 13 13" fill="none" xmlns="http://www.w3.org/2000/svg">
<path d="M3.32331 7.80549C3.74965 9.34826 4.90664 10.1197 6.79428 10.1199C8.0091 10.1199 8.92832 9.70952 9.55196 8.88877L12.1123 10.3659C10.8975 12.1222 9.10861 13.0002 6.74561 13C4.71005 13 3.07701 12.3846 1.84649 11.1537C0.664622 9.89657 0.00459051 8.2373 2.38555e-05 6.51183C-0.0045428 4.78636 0.646691 3.12362 1.82189 1.86023C3.03601 0.621687 4.59517 0.00241457 6.49939 0.00241457C7.33431 -0.0215394 8.16473 0.132966 8.93517 0.455598C9.70561 0.778231 10.3983 1.26156 10.967 1.87331C12.1419 3.12316 12.7747 4.78693 12.7275 6.50162C12.7248 6.93927 12.6837 7.37583 12.6045 7.80627L3.32331 7.80549ZM3.27439 5.3435H9.55091C9.42754 4.60057 9.02728 3.93198 8.43073 3.47234C7.86986 3.06412 7.19198 2.84831 6.49834 2.85716C5.73889 2.82739 4.99198 3.0575 4.38096 3.5095C3.80643 3.97056 3.41398 4.62039 3.27334 5.3435" fill="#271C47"/>
</svg>
