<svg width="15" height="15" viewBox="0 0 15 15" fill="none" xmlns="http://www.w3.org/2000/svg">
<path d="M3.83457 9.00627C4.32649 10.7864 5.66147 11.6765 7.8395 11.6767C9.24121 11.6767 10.3018 11.2032 11.0214 10.2562L13.9757 11.9605C12.574 13.987 10.5099 15.0001 7.78335 14.9999C5.43463 14.9999 3.55037 14.2898 2.13055 12.8696C0.766867 11.419 0.00529671 9.50451 2.75253e-05 7.5136C-0.00524166 5.52269 0.746176 3.60416 2.10216 2.1464C3.50306 0.717326 5.30209 0.00278602 7.49924 0.00278602C8.4626 -0.0248529 9.42078 0.153421 10.3097 0.525687C11.1987 0.897953 11.998 1.45564 12.6542 2.16149C14.0097 3.60362 14.7399 5.52335 14.6855 7.50181C14.6824 8.00679 14.6349 8.51052 14.5436 9.00717L3.83457 9.00627ZM3.77811 6.16553H11.0202C10.8779 5.30832 10.416 4.53687 9.7277 4.00652C9.08055 3.5355 8.29838 3.28649 7.49803 3.29671C6.62175 3.26235 5.75994 3.52786 5.05491 4.04939C4.392 4.58139 3.93918 5.33118 3.77691 6.16553" fill="#271C47"/>
</svg>
