<svg width="42" height="42" viewBox="0 0 42 42" fill="none" xmlns="http://www.w3.org/2000/svg">
<path fill-rule="evenodd" clip-rule="evenodd" d="M41.9999 20.9999C41.9999 25.1533 40.7683 29.2135 38.4608 32.6669C36.1533 36.1203 32.8735 38.8119 29.0363 40.4013C25.199 41.9908 20.9766 42.4067 16.9031 41.5964C12.8295 40.7861 9.08764 38.786 6.15075 35.8491C3.21385 32.9122 1.2138 29.1704 0.403517 25.0968C-0.40677 21.0232 0.00909909 16.8008 1.59853 12.9636C3.18797 9.12637 5.87958 5.84662 9.33301 3.53912C12.7864 1.23162 16.8466 0 20.9999 0C23.7577 0 26.4884 0.543176 29.0363 1.59852C31.5841 2.65387 33.8991 4.20071 35.8491 6.15074C37.7992 8.10076 39.346 10.4158 40.4014 12.9636C41.4567 15.5114 41.9999 18.2422 41.9999 20.9999ZM10.7223 23.4811C11.2219 25.2874 12.5766 26.1906 14.7864 26.1908C16.2083 26.1908 17.2844 25.7103 18.0148 24.7494L21.0124 26.4788C19.5901 28.535 17.4957 29.563 14.7291 29.5628C12.3463 29.5628 10.4345 28.8423 8.99357 27.4012C7.60985 25.9293 6.83709 23.9867 6.83175 21.9665C6.8264 19.9463 7.58886 17.9996 8.96477 16.5204C10.3865 15.0704 12.2118 14.3453 14.4408 14.3453C15.4185 14.3173 16.3908 14.4981 17.2929 14.8759C18.195 15.2536 19.0062 15.8195 19.6721 16.5357C21.0473 17.9992 21.7881 19.9471 21.733 21.9545C21.7299 22.4669 21.6816 22.9781 21.5887 23.482L10.7223 23.4811ZM10.6638 20.5986H18.0148C17.8703 19.7288 17.4017 18.946 16.7033 18.4079C16.0465 17.9299 15.2527 17.6772 14.4405 17.6876C13.5514 17.6528 12.6769 17.9222 11.9615 18.4514C11.2887 18.9912 10.829 19.752 10.6638 20.5986ZM28.139 29.0075C29.0719 29.3849 30.0704 29.5736 31.0767 29.5625L31.078 29.5622C32.4251 29.5769 33.7506 29.2232 34.9114 28.5393C36.0334 27.8888 36.9595 26.9479 37.5919 25.8155L34.3639 23.9707C34.0813 24.5606 33.6234 25.0488 33.0527 25.3685C32.4415 25.7113 31.7501 25.8853 31.0495 25.8728C30.5367 25.8885 30.0263 25.798 29.5501 25.6071C29.074 25.4163 28.6424 25.129 28.2825 24.7635C27.5778 23.9915 27.1872 22.9841 27.1872 21.9389C27.1872 20.8937 27.5778 19.8863 28.2825 19.1143C28.6424 18.7488 29.074 18.4616 29.5501 18.2706C30.0263 18.0797 30.5367 17.9892 31.0495 18.0047C31.7424 17.9949 32.4249 18.1742 33.0236 18.5234C33.593 18.8514 34.0501 19.3436 34.3351 19.9357L37.5331 18.0623C36.9359 16.9269 36.0256 15.9866 34.9101 15.3529C33.7465 14.6775 32.4221 14.3289 31.0767 14.3438C30.0704 14.3327 29.0719 14.5214 28.139 14.8988C27.2061 15.2763 26.3573 15.835 25.6418 16.5427C24.9263 17.2504 24.3582 18.093 23.9706 19.0217C23.5829 19.9504 23.3833 20.9468 23.3833 21.9532C23.3833 22.9595 23.5829 23.9559 23.9706 24.8846C24.3582 25.8133 24.9263 26.6559 25.6418 27.3636C26.3573 28.0713 27.2061 28.63 28.139 29.0075Z" fill="#F7CA11"/>
</svg>
